<svg xmlns="http://www.w3.org/2000/svg" width="208" height="239" viewBox="0 0 208 239" fill="none">
  <path d="M73.4 232.4C72.8 232.1 66.3 225.4 59 217.4C48.4 205.9 44.4 202.3 39.6 199.7C31.9 195.8 18.5 182.6 13.9 174.5C7.7 163.8 5.9 158.4 3.5 143.1C0.799998 126.2 1.5 123.1 9.1 115.3C14.5 109.8 24.4 105 37.8 101.4C43.3 99.9 44.3 99.9 45.1 101.1C46.8 103.8 46.1 105.9 43.3 106.6C26.4 110.3 14.2 116.8 10.4 124.2C8.5 127.9 8.6 129 11.4 132.5L13.8 135.5L19.1 130C22.1 127 26.5 123.5 29 122.3C34.8 119.4 44.6 117 50.2 117C54.6 117 54.6 117 57.5 111.1C60 105.8 60.2 104.8 59 102.1C58.4 100.4 57.1 98.5 56.3 97.9C53.6 95.6 51 89.1 51 84.7C51 81.6 52.1 78.1 54.6 73.1C58.3 66 58.3 65.9 57 60.3C56.3 57.2 55.1 54 54.4 53.2C52.4 51.3 52.7 49.3 54.9 48C57.9 46.5 59.7 47.7 63 53.5C65.7 58.3 66 59.5 65.4 64C65 66.8 63.2 72.1 61.4 75.7C56.6 85 56.7 85.9 63.8 96.5C67.6 102.3 67.9 106.9 64.9 111.9C62.6 115.6 63.1 116.5 67.5 117.3C70.1 117.8 70.7 117.5 71.8 115.1C72.5 113.6 74 111.3 75.3 110C78.8 106.1 78.4 99.7 74 93.5C70.9 89.1 70.5 87.7 70.5 82.5C70.5 77.5 71.1 75.3 73.8 70.3C77.6 63.2 77.5 59.2 73.3 50.2C71.3 46 71.1 44.6 72 43.5C74.2 40.8 76.4 41.9 80.4 47.7C83.9 52.7 84.3 53.9 84.3 59.2C84.2 63.9 83.5 66.6 80.5 72.6C76 81.6 76.1 85.3 81 92.3C83.5 95.7 84.4 98.3 84.8 102.2C85.2 107 84.9 108 81.5 112.8C79.5 115.8 78.1 118.8 78.4 119.5C78.6 120.2 80.3 121.5 82 122.4C85 123.9 85.3 123.8 87.3 121.7C88.5 120.5 90.1 117.7 90.9 115.5C91.6 113.3 93.1 110.3 94.2 108.8C97 104.7 97.5 99.9 95.5 95.6C94.5 93.6 93.4 92 93 92C92.5 92 91.2 89.5 90 86.4C88.3 81.6 88.1 80.2 89 77.1C90.2 73.2 92.2 68.8 93.1 68C93.4 67.7 94.2 66.1 94.9 64.3C96.1 61.4 96 59.2 94.5 50.9C94.3 50.1 93.2 47.8 92.1 45.9C87.7 38.8 90.7 33 95.9 38.6C98.8 41.8 101.007 45.7067 101.5 47C101.993 48.2933 102 48.5 102.5 50.4C103.4 52.4 103.7 55.5 103.4 58.1C102.9 62.4 99.6 71.2 97.6 73.9C96.2 75.7 96.3 85.9 97.7 86.8C99.8 88.1 104 97.7 104 101.2C104 103.1 102.9 106.9 101.5 109.6C98.2 116 98.3 117.2 101.6 116C107 113.9 117.1 115.4 124.8 119.4C128.2 121.2 136 128.4 136 129.8C136 130.3 136.7 131.4 137.6 132.1C139 133.2 139.4 133.1 140.6 131.5C145.7 124.6 134.3 110.8 117.3 103.5C114.1 102.1 113.1 101 112.6 98.7C112.3 97 112.2 95.5 112.4 95.3C113.4 94.3 127.4 101.1 133.5 105.5C140.3 110.3 145.1 115.9 147.6 121.9C150.7 129.4 147.8 152.2 142 166C136 180.1 124.2 193.2 111.3 199.9C106.8 202.3 103.7 205.1 90.5 219.5C85 225.4 79.9 230.9 79.2 231.6C77.9 233 75.6 233.3 73.4 232.4ZM82.6 198.4C92.1 193.9 94.1 180.6 86.2 173.3C80.8 168.3 72.9 167.9 66.7 172.2C62.9 174.9 61 179.1 61 184.8C61 196.1 72.4 203.2 82.6 198.4ZM77.1 150.1C75.6 147.4 70.4 143.2 66.1 141.3C61.4 139.2 48.3 139 44.4 141C40.5 142.9 38 145.1 38 146.4C38 148.4 57 151.7 69.8 151.9C77.6 152 78 151.9 77.1 150.1ZM96.9 151.1C100.5 148.8 86.8 133.6 77 128.9C74.5 127.7 71.4 126.2 70.1 125.6C66.6 124 43.3 124.2 39 125.9C31.1 129 30 129.5 30 130.2C30 130.7 29.4 131 28.6 131C27 131 21 137.8 21 139.6C21 140.2 22.8 141.5 25 142.5L28.9 144.3L34 139.7C36.7 137.2 41.1 134.5 43.7 133.6C52.5 130.6 65.5 132.1 73.4 137C77.2 139.3 87 149.4 87 150.9C87 152.2 94.9 152.3 96.9 151.1ZM113.1 147.3C121 145.4 121.6 144 116.1 140.3C113.8 138.7 111.3 138 108.1 138C103.6 138.1 98.9 140.2 100.8 141.4C101.3 141.7 102.5 143.5 103.4 145.5C104.3 147.4 105.3 149 105.7 149C106 149 109.3 148.2 113.1 147.3ZM130 140.3C131.4 139.4 132.6 138.6 132.8 138.4C134.4 137.3 124.5 126.4 120 124.2C114.4 121.5 101.6 121.9 95.7 124.9C93.1 126.2 91 127.7 91 128.2C91 128.7 92.1 130.2 93.6 131.6C95.8 133.8 96.5 134.1 98.8 133.2C105.5 130.5 108.9 130.2 113.5 131.6C119.1 133.2 123.1 136 125 139.4C126.6 142.5 126.8 142.5 130 140.3Z" fill="#ffffff"/>
</svg>